<mxfile host="app.diagrams.net" modified="2023-03-10T02:52:07.254Z" agent="5.0 (Macintosh; Intel Mac OS X 10_15_7) AppleWebKit/537.36 (KHTML, like Gecko) Chrome/109.0.0.0 Safari/537.36" etag="fqCHr8xzhAAMcHJgsTW0" version="21.0.6" type="github">
  <diagram id="C5RBs43oDa-KdzZeNtuy" name="Page-1">
    <mxGraphModel dx="2522" dy="1408" grid="1" gridSize="10" guides="1" tooltips="1" connect="1" arrows="1" fold="1" page="1" pageScale="1" pageWidth="827" pageHeight="1169" math="0" shadow="0">
      <root>
        <mxCell id="WIyWlLk6GJQsqaUBKTNV-0" />
        <mxCell id="WIyWlLk6GJQsqaUBKTNV-1" parent="WIyWlLk6GJQsqaUBKTNV-0" />
        <mxCell id="WIyWlLk6GJQsqaUBKTNV-2" value="" style="rounded=0;html=1;jettySize=auto;orthogonalLoop=1;fontSize=11;endArrow=block;endFill=0;endSize=8;strokeWidth=1;shadow=0;labelBackgroundColor=none;edgeStyle=orthogonalEdgeStyle;entryX=0.5;entryY=0;entryDx=0;entryDy=0;" parent="WIyWlLk6GJQsqaUBKTNV-1" source="WIyWlLk6GJQsqaUBKTNV-3" target="bBfaDSPvjs4iBAGI9TxI-4" edge="1">
          <mxGeometry relative="1" as="geometry" />
        </mxCell>
        <mxCell id="WIyWlLk6GJQsqaUBKTNV-3" value="新需求创建开发分支" style="rounded=1;whiteSpace=wrap;html=1;fontSize=12;glass=0;strokeWidth=1;shadow=0;" parent="WIyWlLk6GJQsqaUBKTNV-1" vertex="1">
          <mxGeometry x="230" y="260" width="120" height="40" as="geometry" />
        </mxCell>
        <mxCell id="WIyWlLk6GJQsqaUBKTNV-5" value="No" style="edgeStyle=orthogonalEdgeStyle;rounded=0;html=1;jettySize=auto;orthogonalLoop=1;fontSize=11;endArrow=block;endFill=0;endSize=8;strokeWidth=1;shadow=0;labelBackgroundColor=none;" parent="WIyWlLk6GJQsqaUBKTNV-1" source="WIyWlLk6GJQsqaUBKTNV-6" target="WIyWlLk6GJQsqaUBKTNV-7" edge="1">
          <mxGeometry y="10" relative="1" as="geometry">
            <mxPoint as="offset" />
          </mxGeometry>
        </mxCell>
        <mxCell id="WIyWlLk6GJQsqaUBKTNV-6" value="是否需要虚环境" style="rhombus;whiteSpace=wrap;html=1;shadow=0;fontFamily=Helvetica;fontSize=12;align=center;strokeWidth=1;spacing=6;spacingTop=-4;" parent="WIyWlLk6GJQsqaUBKTNV-1" vertex="1">
          <mxGeometry x="399" y="380" width="150" height="120" as="geometry" />
        </mxCell>
        <mxCell id="WIyWlLk6GJQsqaUBKTNV-7" value="避免以 feature 开头" style="rounded=1;whiteSpace=wrap;html=1;fontSize=12;glass=0;strokeWidth=1;shadow=0;" parent="WIyWlLk6GJQsqaUBKTNV-1" vertex="1">
          <mxGeometry x="569" y="620" width="120" height="40" as="geometry" />
        </mxCell>
        <mxCell id="WIyWlLk6GJQsqaUBKTNV-11" value="开发" style="rounded=1;whiteSpace=wrap;html=1;fontSize=12;glass=0;strokeWidth=1;shadow=0;" parent="WIyWlLk6GJQsqaUBKTNV-1" vertex="1">
          <mxGeometry x="230" y="610" width="120" height="40" as="geometry" />
        </mxCell>
        <mxCell id="bBfaDSPvjs4iBAGI9TxI-4" value="创建开发分支" style="rounded=1;whiteSpace=wrap;html=1;" vertex="1" parent="WIyWlLk6GJQsqaUBKTNV-1">
          <mxGeometry x="230" y="410" width="120" height="60" as="geometry" />
        </mxCell>
        <mxCell id="bBfaDSPvjs4iBAGI9TxI-5" value="" style="rounded=0;html=1;jettySize=auto;orthogonalLoop=1;fontSize=11;endArrow=block;endFill=0;endSize=8;strokeWidth=1;shadow=0;labelBackgroundColor=none;edgeStyle=orthogonalEdgeStyle;exitX=1;exitY=0.5;exitDx=0;exitDy=0;entryX=0;entryY=0.5;entryDx=0;entryDy=0;" edge="1" parent="WIyWlLk6GJQsqaUBKTNV-1" source="bBfaDSPvjs4iBAGI9TxI-4" target="WIyWlLk6GJQsqaUBKTNV-6">
          <mxGeometry x="0.1837" y="20" relative="1" as="geometry">
            <mxPoint as="offset" />
            <mxPoint x="290" y="690" as="sourcePoint" />
            <mxPoint x="290" y="800" as="targetPoint" />
            <Array as="points">
              <mxPoint x="369" y="440" />
              <mxPoint x="369" y="440" />
            </Array>
          </mxGeometry>
        </mxCell>
        <mxCell id="bBfaDSPvjs4iBAGI9TxI-6" value="分支名以 feature 开头" style="rounded=1;whiteSpace=wrap;html=1;" vertex="1" parent="WIyWlLk6GJQsqaUBKTNV-1">
          <mxGeometry x="402.5" y="620" width="143" height="40" as="geometry" />
        </mxCell>
        <mxCell id="bBfaDSPvjs4iBAGI9TxI-7" value="Yes" style="edgeStyle=orthogonalEdgeStyle;rounded=0;html=1;jettySize=auto;orthogonalLoop=1;fontSize=11;endArrow=block;endFill=0;endSize=8;strokeWidth=1;shadow=0;labelBackgroundColor=none;exitX=0.5;exitY=1;exitDx=0;exitDy=0;entryX=0.5;entryY=0;entryDx=0;entryDy=0;" edge="1" parent="WIyWlLk6GJQsqaUBKTNV-1" source="WIyWlLk6GJQsqaUBKTNV-6" target="bBfaDSPvjs4iBAGI9TxI-6">
          <mxGeometry y="10" relative="1" as="geometry">
            <mxPoint as="offset" />
            <mxPoint x="559" y="450" as="sourcePoint" />
            <mxPoint x="474" y="600" as="targetPoint" />
          </mxGeometry>
        </mxCell>
        <mxCell id="bBfaDSPvjs4iBAGI9TxI-10" value="合并到 test 分支测试" style="rounded=1;whiteSpace=wrap;html=1;fontSize=12;glass=0;strokeWidth=1;shadow=0;" vertex="1" parent="WIyWlLk6GJQsqaUBKTNV-1">
          <mxGeometry x="220" y="760" width="140" height="40" as="geometry" />
        </mxCell>
        <mxCell id="bBfaDSPvjs4iBAGI9TxI-11" value="合并到 master" style="rounded=1;whiteSpace=wrap;html=1;fontSize=12;glass=0;strokeWidth=1;shadow=0;" vertex="1" parent="WIyWlLk6GJQsqaUBKTNV-1">
          <mxGeometry x="230" y="890" width="120" height="40" as="geometry" />
        </mxCell>
        <mxCell id="bBfaDSPvjs4iBAGI9TxI-29" style="edgeStyle=orthogonalEdgeStyle;rounded=0;orthogonalLoop=1;jettySize=auto;html=1;exitX=1;exitY=0.5;exitDx=0;exitDy=0;" edge="1" parent="WIyWlLk6GJQsqaUBKTNV-1" source="bBfaDSPvjs4iBAGI9TxI-12">
          <mxGeometry relative="1" as="geometry">
            <mxPoint x="543" y="780" as="targetPoint" />
          </mxGeometry>
        </mxCell>
        <mxCell id="bBfaDSPvjs4iBAGI9TxI-12" value="发布到测试环境" style="rounded=1;whiteSpace=wrap;html=1;fontSize=12;glass=0;strokeWidth=1;shadow=0;" vertex="1" parent="WIyWlLk6GJQsqaUBKTNV-1">
          <mxGeometry x="403" y="760" width="140" height="40" as="geometry" />
        </mxCell>
        <mxCell id="bBfaDSPvjs4iBAGI9TxI-13" value="执行测试环境集成测试" style="rounded=1;whiteSpace=wrap;html=1;fontSize=12;glass=0;strokeWidth=1;shadow=0;" vertex="1" parent="WIyWlLk6GJQsqaUBKTNV-1">
          <mxGeometry x="569" y="760" width="140" height="40" as="geometry" />
        </mxCell>
        <mxCell id="bBfaDSPvjs4iBAGI9TxI-14" value="合并到 online 上线" style="rounded=1;whiteSpace=wrap;html=1;fontSize=12;glass=0;strokeWidth=1;shadow=0;" vertex="1" parent="WIyWlLk6GJQsqaUBKTNV-1">
          <mxGeometry x="229" y="1010" width="120" height="40" as="geometry" />
        </mxCell>
        <mxCell id="bBfaDSPvjs4iBAGI9TxI-15" value="发布到线上环境" style="rounded=1;whiteSpace=wrap;html=1;fontSize=12;glass=0;strokeWidth=1;shadow=0;" vertex="1" parent="WIyWlLk6GJQsqaUBKTNV-1">
          <mxGeometry x="398" y="1010" width="140" height="40" as="geometry" />
        </mxCell>
        <mxCell id="bBfaDSPvjs4iBAGI9TxI-16" value="执行线上集成测试" style="rounded=1;whiteSpace=wrap;html=1;fontSize=12;glass=0;strokeWidth=1;shadow=0;" vertex="1" parent="WIyWlLk6GJQsqaUBKTNV-1">
          <mxGeometry x="569" y="1010" width="140" height="40" as="geometry" />
        </mxCell>
        <mxCell id="bBfaDSPvjs4iBAGI9TxI-21" value="" style="endArrow=classic;html=1;rounded=0;exitX=0.5;exitY=1;exitDx=0;exitDy=0;entryX=0.5;entryY=0;entryDx=0;entryDy=0;" edge="1" parent="WIyWlLk6GJQsqaUBKTNV-1" source="bBfaDSPvjs4iBAGI9TxI-4" target="WIyWlLk6GJQsqaUBKTNV-11">
          <mxGeometry width="50" height="50" relative="1" as="geometry">
            <mxPoint x="260" y="530" as="sourcePoint" />
            <mxPoint x="310" y="480" as="targetPoint" />
          </mxGeometry>
        </mxCell>
        <mxCell id="bBfaDSPvjs4iBAGI9TxI-24" value="" style="endArrow=classic;html=1;rounded=0;exitX=0.5;exitY=1;exitDx=0;exitDy=0;entryX=0.5;entryY=0;entryDx=0;entryDy=0;" edge="1" parent="WIyWlLk6GJQsqaUBKTNV-1" source="WIyWlLk6GJQsqaUBKTNV-11" target="bBfaDSPvjs4iBAGI9TxI-10">
          <mxGeometry width="50" height="50" relative="1" as="geometry">
            <mxPoint x="300" y="480" as="sourcePoint" />
            <mxPoint x="300" y="700" as="targetPoint" />
          </mxGeometry>
        </mxCell>
        <mxCell id="bBfaDSPvjs4iBAGI9TxI-25" value="" style="endArrow=classic;html=1;rounded=0;entryX=0.5;entryY=0;entryDx=0;entryDy=0;" edge="1" parent="WIyWlLk6GJQsqaUBKTNV-1" target="bBfaDSPvjs4iBAGI9TxI-11">
          <mxGeometry width="50" height="50" relative="1" as="geometry">
            <mxPoint x="290" y="800" as="sourcePoint" />
            <mxPoint x="300" y="770" as="targetPoint" />
          </mxGeometry>
        </mxCell>
        <mxCell id="bBfaDSPvjs4iBAGI9TxI-26" value="" style="endArrow=classic;html=1;rounded=0;entryX=0.5;entryY=0;entryDx=0;entryDy=0;exitX=0.5;exitY=1;exitDx=0;exitDy=0;" edge="1" parent="WIyWlLk6GJQsqaUBKTNV-1" source="bBfaDSPvjs4iBAGI9TxI-11" target="bBfaDSPvjs4iBAGI9TxI-14">
          <mxGeometry width="50" height="50" relative="1" as="geometry">
            <mxPoint x="300" y="810" as="sourcePoint" />
            <mxPoint x="300" y="900" as="targetPoint" />
          </mxGeometry>
        </mxCell>
        <mxCell id="bBfaDSPvjs4iBAGI9TxI-27" value="" style="endArrow=classic;html=1;rounded=0;exitX=1;exitY=0.5;exitDx=0;exitDy=0;entryX=0;entryY=0.5;entryDx=0;entryDy=0;" edge="1" parent="WIyWlLk6GJQsqaUBKTNV-1" source="bBfaDSPvjs4iBAGI9TxI-10" target="bBfaDSPvjs4iBAGI9TxI-12">
          <mxGeometry width="50" height="50" relative="1" as="geometry">
            <mxPoint x="370" y="820" as="sourcePoint" />
            <mxPoint x="420" y="770" as="targetPoint" />
          </mxGeometry>
        </mxCell>
        <mxCell id="bBfaDSPvjs4iBAGI9TxI-28" value="" style="endArrow=classic;html=1;rounded=0;entryX=0;entryY=0.5;entryDx=0;entryDy=0;" edge="1" parent="WIyWlLk6GJQsqaUBKTNV-1" target="bBfaDSPvjs4iBAGI9TxI-13">
          <mxGeometry width="50" height="50" relative="1" as="geometry">
            <mxPoint x="540" y="780" as="sourcePoint" />
            <mxPoint x="413" y="790" as="targetPoint" />
          </mxGeometry>
        </mxCell>
        <mxCell id="bBfaDSPvjs4iBAGI9TxI-30" value="" style="endArrow=classic;html=1;rounded=0;entryX=0;entryY=0.5;entryDx=0;entryDy=0;exitX=1;exitY=0.5;exitDx=0;exitDy=0;" edge="1" parent="WIyWlLk6GJQsqaUBKTNV-1" source="bBfaDSPvjs4iBAGI9TxI-15" target="bBfaDSPvjs4iBAGI9TxI-16">
          <mxGeometry width="50" height="50" relative="1" as="geometry">
            <mxPoint x="550" y="790" as="sourcePoint" />
            <mxPoint x="579" y="790" as="targetPoint" />
          </mxGeometry>
        </mxCell>
        <mxCell id="bBfaDSPvjs4iBAGI9TxI-31" value="" style="endArrow=classic;html=1;rounded=0;exitX=1;exitY=0.5;exitDx=0;exitDy=0;entryX=0;entryY=0.5;entryDx=0;entryDy=0;" edge="1" parent="WIyWlLk6GJQsqaUBKTNV-1" source="bBfaDSPvjs4iBAGI9TxI-14" target="bBfaDSPvjs4iBAGI9TxI-15">
          <mxGeometry width="50" height="50" relative="1" as="geometry">
            <mxPoint x="370" y="790" as="sourcePoint" />
            <mxPoint x="413" y="790" as="targetPoint" />
          </mxGeometry>
        </mxCell>
        <mxCell id="bBfaDSPvjs4iBAGI9TxI-32" value="code review" style="text;html=1;strokeColor=none;fillColor=none;align=center;verticalAlign=middle;whiteSpace=wrap;rounded=0;" vertex="1" parent="WIyWlLk6GJQsqaUBKTNV-1">
          <mxGeometry x="444" y="870" width="60" height="30" as="geometry" />
        </mxCell>
        <mxCell id="bBfaDSPvjs4iBAGI9TxI-44" value="" style="edgeStyle=orthogonalEdgeStyle;rounded=0;orthogonalLoop=1;jettySize=auto;html=1;" edge="1" parent="WIyWlLk6GJQsqaUBKTNV-1" source="bBfaDSPvjs4iBAGI9TxI-34" target="bBfaDSPvjs4iBAGI9TxI-43">
          <mxGeometry relative="1" as="geometry" />
        </mxCell>
        <mxCell id="bBfaDSPvjs4iBAGI9TxI-34" value="查看集成测试状态" style="rhombus;whiteSpace=wrap;html=1;" vertex="1" parent="WIyWlLk6GJQsqaUBKTNV-1">
          <mxGeometry x="599" y="870" width="80" height="80" as="geometry" />
        </mxCell>
        <mxCell id="bBfaDSPvjs4iBAGI9TxI-35" value="" style="edgeStyle=orthogonalEdgeStyle;rounded=0;html=1;jettySize=auto;orthogonalLoop=1;fontSize=11;endArrow=block;endFill=0;endSize=8;strokeWidth=1;shadow=0;labelBackgroundColor=none;exitX=0.5;exitY=1;exitDx=0;exitDy=0;entryX=0.5;entryY=0;entryDx=0;entryDy=0;" edge="1" parent="WIyWlLk6GJQsqaUBKTNV-1" source="bBfaDSPvjs4iBAGI9TxI-13" target="bBfaDSPvjs4iBAGI9TxI-34">
          <mxGeometry y="10" relative="1" as="geometry">
            <mxPoint as="offset" />
            <mxPoint x="484" y="510" as="sourcePoint" />
            <mxPoint x="484" y="630" as="targetPoint" />
          </mxGeometry>
        </mxCell>
        <mxCell id="bBfaDSPvjs4iBAGI9TxI-36" value="Yes" style="edgeStyle=orthogonalEdgeStyle;rounded=0;html=1;jettySize=auto;orthogonalLoop=1;fontSize=11;endArrow=block;endFill=0;endSize=8;strokeWidth=1;shadow=0;labelBackgroundColor=none;exitX=0;exitY=0.5;exitDx=0;exitDy=0;entryX=1;entryY=0.5;entryDx=0;entryDy=0;" edge="1" parent="WIyWlLk6GJQsqaUBKTNV-1" source="bBfaDSPvjs4iBAGI9TxI-34" target="bBfaDSPvjs4iBAGI9TxI-11">
          <mxGeometry y="10" relative="1" as="geometry">
            <mxPoint as="offset" />
            <mxPoint x="649" y="810" as="sourcePoint" />
            <mxPoint x="649" y="870" as="targetPoint" />
            <Array as="points">
              <mxPoint x="470" y="910" />
              <mxPoint x="470" y="910" />
            </Array>
          </mxGeometry>
        </mxCell>
        <mxCell id="bBfaDSPvjs4iBAGI9TxI-50" value="" style="edgeStyle=orthogonalEdgeStyle;rounded=0;orthogonalLoop=1;jettySize=auto;html=1;" edge="1" parent="WIyWlLk6GJQsqaUBKTNV-1" source="bBfaDSPvjs4iBAGI9TxI-37">
          <mxGeometry relative="1" as="geometry">
            <mxPoint x="639" y="1250" as="targetPoint" />
          </mxGeometry>
        </mxCell>
        <mxCell id="bBfaDSPvjs4iBAGI9TxI-37" value="查看集成测试状态" style="rhombus;whiteSpace=wrap;html=1;" vertex="1" parent="WIyWlLk6GJQsqaUBKTNV-1">
          <mxGeometry x="599" y="1080" width="80" height="80" as="geometry" />
        </mxCell>
        <mxCell id="bBfaDSPvjs4iBAGI9TxI-38" value="" style="edgeStyle=orthogonalEdgeStyle;rounded=0;html=1;jettySize=auto;orthogonalLoop=1;fontSize=11;endArrow=block;endFill=0;endSize=8;strokeWidth=1;shadow=0;labelBackgroundColor=none;exitX=0.5;exitY=1;exitDx=0;exitDy=0;entryX=0.5;entryY=0;entryDx=0;entryDy=0;" edge="1" parent="WIyWlLk6GJQsqaUBKTNV-1" source="bBfaDSPvjs4iBAGI9TxI-16" target="bBfaDSPvjs4iBAGI9TxI-37">
          <mxGeometry y="10" relative="1" as="geometry">
            <mxPoint as="offset" />
            <mxPoint x="649" y="810" as="sourcePoint" />
            <mxPoint x="649" y="880" as="targetPoint" />
          </mxGeometry>
        </mxCell>
        <mxCell id="bBfaDSPvjs4iBAGI9TxI-39" value="上线完成" style="rounded=0;whiteSpace=wrap;html=1;" vertex="1" parent="WIyWlLk6GJQsqaUBKTNV-1">
          <mxGeometry x="408" y="1090" width="120" height="60" as="geometry" />
        </mxCell>
        <mxCell id="bBfaDSPvjs4iBAGI9TxI-40" value="Yes" style="edgeStyle=orthogonalEdgeStyle;rounded=0;html=1;jettySize=auto;orthogonalLoop=1;fontSize=11;endArrow=block;endFill=0;endSize=8;strokeWidth=1;shadow=0;labelBackgroundColor=none;exitX=0;exitY=0.5;exitDx=0;exitDy=0;" edge="1" parent="WIyWlLk6GJQsqaUBKTNV-1" source="bBfaDSPvjs4iBAGI9TxI-37">
          <mxGeometry y="10" relative="1" as="geometry">
            <mxPoint as="offset" />
            <mxPoint x="579" y="1119.5" as="sourcePoint" />
            <mxPoint x="530" y="1120" as="targetPoint" />
            <Array as="points">
              <mxPoint x="560" y="1120" />
            </Array>
          </mxGeometry>
        </mxCell>
        <mxCell id="bBfaDSPvjs4iBAGI9TxI-46" value="" style="edgeStyle=orthogonalEdgeStyle;rounded=0;orthogonalLoop=1;jettySize=auto;html=1;" edge="1" parent="WIyWlLk6GJQsqaUBKTNV-1" source="bBfaDSPvjs4iBAGI9TxI-43" target="bBfaDSPvjs4iBAGI9TxI-45">
          <mxGeometry relative="1" as="geometry" />
        </mxCell>
        <mxCell id="bBfaDSPvjs4iBAGI9TxI-48" value="" style="edgeStyle=orthogonalEdgeStyle;rounded=0;orthogonalLoop=1;jettySize=auto;html=1;" edge="1" parent="WIyWlLk6GJQsqaUBKTNV-1" source="bBfaDSPvjs4iBAGI9TxI-43" target="bBfaDSPvjs4iBAGI9TxI-47">
          <mxGeometry relative="1" as="geometry" />
        </mxCell>
        <mxCell id="bBfaDSPvjs4iBAGI9TxI-43" value="判断是否是本次变更影响" style="rhombus;whiteSpace=wrap;html=1;" vertex="1" parent="WIyWlLk6GJQsqaUBKTNV-1">
          <mxGeometry x="759" y="870" width="80" height="80" as="geometry" />
        </mxCell>
        <mxCell id="bBfaDSPvjs4iBAGI9TxI-45" value="修复代码" style="whiteSpace=wrap;html=1;" vertex="1" parent="WIyWlLk6GJQsqaUBKTNV-1">
          <mxGeometry x="739" y="720" width="120" height="60" as="geometry" />
        </mxCell>
        <mxCell id="bBfaDSPvjs4iBAGI9TxI-47" value="修复测试用例" style="whiteSpace=wrap;html=1;" vertex="1" parent="WIyWlLk6GJQsqaUBKTNV-1">
          <mxGeometry x="899" y="880" width="120" height="60" as="geometry" />
        </mxCell>
      </root>
    </mxGraphModel>
  </diagram>
</mxfile>
